<?xml version="1.0" encoding="UTF-8" standalone="no"?>
<svg xmlns="http://www.w3.org/2000/svg" width="500" height="500" >
    <circle
      style="fill:#e1fae5;fill-opacity:0;stroke:#545339;stroke-width:1.00157;stroke-opacity:0.04067024"
       id="path884"
       cx="250"
       cy="248.57143"
       r="233.25536"
    />
    <g
      style="display:inline"
    >
      <path
       id="path2529"
       style="display:inline;fill:#157f37;fill-opacity:1;stroke:#003800;stroke-width:1.00157;stroke-opacity:1"
       d="m 249.87695,104.62109 c -79.45404,0.0678 -143.8283,64.49711 -143.82812,143.95118 9.3e-4,79.50133 64.44984,143.94936 143.95117,143.94921 33.17491,2e-4 65.16142,-11.45082 90.68233,-32.15251 4.03131,-3.27006 5.89533,-4.47626 6.40988,-9.33116 0.51455,-4.85491 -1.30412,-7.5936 -4.6203,-10.88221 -23.32551,-23.1316 -49.22405,-48.79242 -80.15113,-79.39402 -5.17783,-5.48447 -5.68734,-8.5586 -5.79088,-12.19015 0.15943,-3.83791 1.86912,-8.25089 5.24757,-11.57009 l 81.79316,-80.35877 c 1.30366,-1.38766 3.54148,-4.63816 3.27054,-9.17357 -0.27095,-4.53542 -2.08813,-7.40405 -6.33404,-10.83718 C 315.01963,116.02334 283.10486,104.62109 250,104.62109 Z M 250,129.45312 c 15.45331,-3.1e-4 28.1595,11.29956 27.98047,27.98047 -0.17903,16.68091 -8.02056,39.52587 -13.20117,47.96875 -5.18061,8.44288 -8.69823,12.00694 -14.7793,12.14649 -6.08107,0.13955 -9.68635,-2.22221 -15.49805,-11.85938 -5.81169,-9.63718 -12.16149,-30.17003 -12.21679,-48.57422 -0.0553,-18.40419 12.26153,-27.66242 27.71484,-27.66211 z m -91.13867,91.13868 c 16.68091,0.17903 39.52587,8.01861 47.96875,13.19922 8.44288,5.18061 12.00693,8.70018 12.14648,14.78125 0.13955,6.08107 -2.22025,9.68439 -11.85742,15.49609 -9.63718,5.81169 -30.17003,12.16345 -48.57422,12.21875 -18.40419,0.0553 -27.66437,-12.26153 -27.66406,-27.71484 -3.1e-4,-15.45331 11.29956,-28.1595 27.98047,-27.98047 z M 250,279.5957 c 6.08107,-0.13955 9.68635,2.22025 15.49805,11.85742 5.81169,9.63719 12.16149,30.17003 12.21679,48.57422 0.0553,18.40419 -12.26153,27.66438 -27.71484,27.66407 -15.45331,3.1e-4 -28.1595,-11.29956 -27.98047,-27.98047 0.17903,-16.68091 8.02056,-39.52783 13.20117,-47.97071 5.18061,-8.44288 8.69823,-12.00498 14.7793,-12.14453 z" />
    <path
       id="path4571"
       style="display:inline;opacity:1;fill:#157f37;fill-opacity:1;stroke:#003800;stroke-width:1.00157;stroke-opacity:1"
       d="M 249.99219,14.152344 C 120.52858,14.156397 15.579815,119.10866 15.580078,248.57227 15.580901,378.03816 120.53411,482.99049 250,482.99023 c 57.32822,5.6e-4 112.48658,-20.99795 155.19644,-58.72809 3.87506,-3.93946 5.59551,-6.05424 6.00087,-10.03864 0.40536,-3.9844 -3.8024,-8.77858 -3.8024,-8.77858 l -20.83004,-20.76126 c 0,0 -3.92271,-5.31721 -10.51409,-5.56662 -6.59138,-0.2494 -9.97661,2.87899 -14.78016,6.84332 C 330.17418,411.62398 290.69472,425.36714 250,425.36719 152.35896,425.36695 73.205315,346.21331 73.205078,248.57227 73.204234,150.93046 152.35819,71.775627 250,71.775391 c 42.74123,1.25e-4 83.86711,15.476162 115.9054,43.294149 3.54185,3.19161 7.15366,5.54872 10.5768,5.50502 3.67532,-0.0199 6.19113,-2.34775 8.61042,-4.72462 l 24.31693,-23.890559 c 0,0 3.61462,-3.754808 3.35406,-7.572499 -0.26057,-3.81769 -1.66764,-6.162336 -4.83884,-9.053508 C 364.86532,36.076266 308.57687,14.152344 250,14.152344 h -0.008 z" />
  </g>
  </svg>